<svg width="16" height="16" viewBox="0 0 16 16" fill="none" xmlns="http://www.w3.org/2000/svg">
<path d="M11.0441 14.6659H11.0627C11.4147 14.6659 11.7474 14.5273 11.9994 14.2753L13.8074 12.4673C13.8694 12.4054 13.9185 12.3319 13.9521 12.251C13.9856 12.1702 14.0029 12.0835 14.0029 11.9959C14.0029 11.9084 13.9856 11.8217 13.9521 11.7408C13.9185 11.6599 13.8694 11.5864 13.8074 11.5246L11.1407 8.85792C11.0789 8.79595 11.0054 8.7468 10.9245 8.71326C10.8436 8.67972 10.757 8.66245 10.6694 8.66245C10.5818 8.66245 10.4951 8.67972 10.4143 8.71326C10.3334 8.7468 10.2599 8.79595 10.1981 8.85792L9.1354 9.92059C8.64273 9.77392 7.7234 9.44059 7.14073 8.85792C6.55806 8.27525 6.22473 7.35592 6.07806 6.86325L7.14073 5.80059C7.20269 5.73873 7.25185 5.66526 7.28539 5.58438C7.31893 5.5035 7.3362 5.41681 7.3362 5.32925C7.3362 5.2417 7.31893 5.155 7.28539 5.07412C7.25185 4.99325 7.20269 4.91978 7.14073 4.85792L4.47406 2.19125C4.34661 2.07095 4.17799 2.00394 4.00273 2.00394C3.82747 2.00394 3.65885 2.07095 3.5314 2.19125L1.72406 3.99925C1.47073 4.25259 1.32806 4.60059 1.3334 4.95592C1.34873 5.90525 1.60006 9.20259 4.19873 11.8013C6.7974 14.3999 10.0947 14.6506 11.0441 14.6659ZM4.0034 3.60525L5.7274 5.32925L4.8654 6.19125C4.78695 6.26948 4.72933 6.36609 4.69777 6.47229C4.66622 6.57848 4.66173 6.69088 4.68473 6.79925C4.70073 6.87592 5.09206 8.69392 6.19873 9.80059C7.3054 10.9073 9.1234 11.2986 9.20006 11.3146C9.30843 11.3377 9.42087 11.3333 9.52708 11.3017C9.6333 11.2702 9.72991 11.2125 9.80806 11.1339L10.6701 10.2719L12.3941 11.9959L11.0567 13.3326C10.2247 13.3186 7.37806 13.0953 5.1414 10.8579C2.8974 8.61392 2.68006 5.75725 2.66673 4.94192L4.0034 3.60525ZM13.3327 7.33259H14.6661C14.6661 3.91259 12.0841 1.33325 8.6594 1.33325V2.66659C11.3674 2.66659 13.3327 4.62858 13.3327 7.33259Z" fill="white"/>
<path d="M8.66602 5.33333C10.068 5.33333 10.666 5.93133 10.666 7.33333H11.9993C11.9993 5.18333 10.816 4 8.66602 4V5.33333Z" fill="white"/>
</svg>
